<?xml version="1.0" standalone="no"?>
<!DOCTYPE svg PUBLIC "-//W3C//DTD SVG 1.1//EN" "http://www.w3.org/Graphics/SVG/1.1/DTD/svg11.dtd" >
<svg xmlns="http://www.w3.org/2000/svg">
<metadata></metadata>
<defs>
<font id="tradegothicmedium_italic" horiz-adv-x="909" >
<font-face units-per-em="2048" ascent="1638" descent="-410" />
<missing-glyph horiz-adv-x="454" />
<glyph unicode="&#xfb01;" d="M211 942l29 123h163l48 217q26 111 87.5 164t178.5 53q44 0 110 -12l-24 -115q-35 17 -76 17q-53 0 -85.5 -30t-43.5 -83l-47 -211h172l-29 -123h-172l-207 -942h-147l207 942h-164zM629 0l235 1065h148l-236 -1065h-147zM918 1307l38 172h148l-39 -172h-147z" />
<glyph unicode="&#xfb02;" d="M211 942l29 123h163l48 217q26 111 87.5 164t178.5 53q44 0 110 -12l-24 -115q-35 17 -76 17q-53 0 -85.5 -30t-43.5 -83l-47 -211h172l-29 -123h-172l-207 -942h-147l207 942h-164zM629 0l327 1479h148l-328 -1479h-147z" />
<glyph horiz-adv-x="2048" />
<glyph horiz-adv-x="2048" />
<glyph unicode="&#xd;" horiz-adv-x="2048" />
<glyph unicode=" "  horiz-adv-x="454" />
<glyph unicode="&#x09;" horiz-adv-x="454" />
<glyph unicode="&#xa0;" horiz-adv-x="454" />
<glyph unicode="!" horiz-adv-x="681" d="M383 438l199 1041h172l-265 -1041h-106zM295 193h172l-41 -193h-172z" />
<glyph unicode="&#x22;" horiz-adv-x="681" d="M358 954l117 525h127l-117 -525h-127zM618 954l117 525h127l-117 -525h-127z" />
<glyph unicode="#" d="M950 580l-24 -115h-172l-154 -465h-121l154 465h-203l-154 -465h-120l155 465h-172l25 115h184l109 319h-170l24 115h181l157 465h119l-156 -465h203l156 465h121l-158 -465h162l-25 -115h-172l-108 -319h159zM778 899h-203l-108 -319h205z" />
<glyph unicode="$" d="M639 655l-117 -532q88 7 153.5 71.5t88.5 165.5q19 89 -15 157.5t-110 137.5zM592 905l100 451q-73 -15 -128 -72t-72 -135q-17 -73 10.5 -130t89.5 -114zM166 406h147q-46 -236 107 -283l133 602q-29 23 -47.5 38.5t-45 39t-42.5 43.5t-35 45.5t-28.5 51.5t-17 56 t-6.5 64t9 70q31 138 136.5 233.5t244.5 112.5l43 196h102l-43 -196q141 -21 197.5 -127.5t26.5 -266.5h-148q15 95 -9 171t-95 100l-115 -522q30 -24 41 -32.5t39 -32.5t39.5 -37t34.5 -37.5t32.5 -42.5t24.5 -45t20 -52t9.5 -55.5t1.5 -63.5t-11 -69q-35 -156 -148 -254.5 t-267 -112.5l-54 -238h-102l53 238q-146 23 -204.5 132t-22.5 274z" />
<glyph unicode="%" horiz-adv-x="1593" d="M856 319q30 132 143 226t248 94t206.5 -94t41.5 -226t-142 -225.5t-247 -93.5t-207.5 93.5t-42.5 225.5zM979 319q-18 -79 26.5 -137.5t127.5 -58.5t152 58t87 138t-26 138.5t-127 58.5t-152.5 -58.5t-87.5 -138.5zM350 1159q30 132 143 226t248 94t206.5 -94t41.5 -226 t-143 -225.5t-248 -93.5t-206.5 93.5t-41.5 225.5zM473 1159q-18 -79 26.5 -137.5t127.5 -58.5t152 58t87 138t-26 138.5t-127 58.5t-152.5 -58.5t-87.5 -138.5zM1466 1499h119l-1186 -1519h-118z" />
<glyph unicode="&#x26;" horiz-adv-x="1138" d="M330 369q-25 -117 24 -185.5t168 -68.5q59 0 123 35.5t111 87.5q-125 200 -199 448q-79 -65 -143.5 -151t-83.5 -166zM653 1198q-6 -27 -8.5 -55.5t-3 -48.5t2.5 -50t5 -42.5t8 -45.5t7 -41q105 95 162 171t77 167q12 55 -12 95.5t-64 40.5q-63 0 -107 -44t-67 -147z M1001 717l142 -8q-38 -134 -81 -230t-118 -209q53 -82 143 -159l-108 -111q-38 19 -82 58t-72 81q-75 -72 -168 -115.5t-182 -43.5q-173 0 -253 101.5t-42 274.5q10 45 27 87t43.5 80.5t48 67.5t58 65t56 54t59.5 52.5t52 44.5q-12 48 -20 107.5t-11 137.5t11 134 q34 152 124 232.5t203 80.5q120 0 181 -75.5t37 -182.5q-11 -48 -29 -92t-47 -84t-54.5 -70.5t-68.5 -68.5t-71 -60.5t-78 -62.5q-9 -7 -13 -10q64 -235 174 -408q72 116 139 332z" />
<glyph unicode="'" horiz-adv-x="454" d="M375 954l117 525h126l-116 -525h-127z" />
<glyph unicode="(" horiz-adv-x="569" d="M451 -164l-113 -61q-86 209 -102 408.5t38 453.5q57 248 162.5 451.5t284.5 410.5l84 -61q-303 -389 -395 -801q-89 -409 41 -801z" />
<glyph unicode=")" horiz-adv-x="569" d="M399 1438l113 61q86 -209 101.5 -408.5t-40.5 -453.5q-55 -248 -160 -451.5t-284 -410.5l-84 61q304 391 393 801q91 407 -39 801z" />
<glyph unicode="*" d="M850 1479l-113 -324l326 143l10 -135l-330 -65l183 -230l-138 -90l-100 283l-223 -283l-100 90l284 230l-301 65l72 135l264 -143l31 324h135z" />
<glyph unicode="+" horiz-adv-x="1228" d="M678 600l104 465h136l-105 -465h465l-29 -135h-465l-102 -465h-135l102 465h-465l29 135h465z" />
<glyph unicode="," horiz-adv-x="454" d="M182 193h172l-45 -205l-188 -295h-62l164 307h-82z" />
<glyph unicode="-" horiz-adv-x="681" d="M694 465h-504l29 135h504z" />
<glyph unicode="." horiz-adv-x="454" d="M182 193h172l-41 -193h-172z" />
<glyph unicode="/" horiz-adv-x="569" d="M109 -20h-136l813 1519h136z" />
<glyph unicode="0" d="M827 739q52 238 58.5 380.5t-25.5 199.5t-102 57t-127 -57t-113 -199.5t-108 -380.5q-53 -237 -60 -380t25 -200t102 -57t127 57t113 199.5t110 380.5zM975 739q-88 -397 -215.5 -578t-310.5 -181t-229 179t42 580q87 397 214 578.5t310 181.5t229 -179.5t-40 -580.5z " />
<glyph unicode="1" d="M717 0h-500l27 123h180l262 1188l-186 -17l18 90q143 32 260 115h99l-306 -1376h172z" />
<glyph unicode="2" d="M795 0h-697l27 123q53 101 130.5 204t153 181t156.5 163t145 156t114 154t67 162q25 112 -11.5 172.5t-115.5 60.5q-92 0 -165.5 -76t-117.5 -235h-135q116 434 442 434q150 0 218 -98.5t28 -278.5q-23 -104 -78 -193.5t-134.5 -171t-165.5 -163.5t-195.5 -207 t-200.5 -264h561z" />
<glyph unicode="3" d="M516 1167l-131 17q42 139 138.5 227t232.5 88q135 0 211 -93t39 -267q-34 -150 -108.5 -241t-162.5 -107v-5q73 -26 111 -84.5t39 -130t-15 -153.5q-25 -110 -74 -196t-112 -137.5t-132 -78t-140 -26.5q-147 0 -215.5 104.5t-32.5 267.5h135q-19 -121 21 -185.5 t137 -64.5q79 0 155.5 83t108.5 227q18 73 15 126.5t-18.5 89t-53 57.5t-87.5 31t-122 9l26 123q173 0 255.5 58t119.5 224q28 126 -5 186t-114 60q-88 0 -143 -60.5t-78 -148.5z" />
<glyph unicode="4" d="M815 1343l-526 -884h334l196 884h-4zM782 1479h215l-227 -1020h154l-27 -123h-154l-73 -336h-148l74 336h-473l14 70z" />
<glyph unicode="5" d="M186 332l140 12q-7 -40 -2.5 -82.5t16.5 -78t43 -58.5t78 -23q99 0 182 100.5t123 286.5q22 100 22.5 172.5t-19.5 113t-50.5 59t-73.5 18.5q-62 0 -124 -41t-95 -102l-111 20l217 750h521l-41 -123h-389l-129 -451q99 70 213 70q136 0 198 -125t10 -356 q-55 -244 -187.5 -379t-287.5 -135q-78 0 -134 28t-84 76t-38.5 112t2.5 136z" />
<glyph unicode="6" d="M1038 1212l-137 -8q4 52 -6 88.5t-30.5 53.5t-41 23.5t-45.5 6.5q-210 0 -348 -592q133 113 254 113q65 0 114.5 -24t84 -77.5t38.5 -140.5t-22 -213q-47 -214 -160 -338t-260 -124q-100 0 -161 31.5t-92.5 108.5t-24.5 209t51 330q185 840 559 840q134 0 184 -73.5 t43 -213.5zM397 647l-32 -139q-34 -148 -27 -238t43 -129t104 -39q193 0 269 342q71 330 -113 330q-123 0 -244 -127z" />
<glyph unicode="7" d="M422 1356l29 123h663l-18 -78l-740 -1401h-155l729 1356h-508z" />
<glyph unicode="8" d="M752 367q9 39 9 74.5t-8.5 66t-21 57t-33 52.5t-41 47t-47.5 45q-123 -79 -196 -156t-97 -186q-13 -45 -8 -92.5t21 -85.5t54 -62.5t93 -24.5q105 0 178.5 81t96.5 184zM901 1184q17 78 -18.5 135t-124.5 57t-149 -57t-77 -135q-25 -109 5.5 -192t105.5 -136 q98 53 165.5 136t92.5 192zM901 373q-37 -166 -161.5 -279.5t-290.5 -113.5t-240 113.5t-37 279.5q55 246 330 413q-87 83 -118 170t-3 211q32 144 148.5 238t256.5 94t215 -94t43 -238q-28 -125 -96.5 -211.5t-191.5 -169.5q200 -168 145 -413z" />
<glyph unicode="9" d="M197 266l137 8q-4 -52 6 -88.5t30.5 -53.5t41 -23.5t45.5 -6.5q210 0 348 592q-132 -112 -254 -112q-65 0 -114.5 23.5t-84 77.5t-38.5 140.5t22 212.5q47 215 160 339t260 124q100 0 161 -31.5t92.5 -108.5t24.5 -209.5t-51 -330.5q-185 -839 -559 -839q-134 0 -184 73 t-43 213zM840 831l30 140q35 148 27.5 238t-43.5 128.5t-104 38.5q-193 0 -269 -342q-71 -329 113 -329q120 0 246 126z" />
<glyph unicode=":" horiz-adv-x="454" d="M182 193h172l-41 -193h-172zM307 750h172l-43 -193h-172z" />
<glyph unicode=";" horiz-adv-x="454" d="M182 193h172l-45 -205l-188 -295h-62l164 307h-82zM307 750h172l-43 -193h-172z" />
<glyph unicode="&#x3c;" horiz-adv-x="1228" d="M1178 147l-31 -141l-959 475l23 103l1169 475l-30 -141l-951 -386z" />
<glyph unicode="=" horiz-adv-x="1228" d="M233 684l29 135h1065l-29 -135h-1065zM135 246l31 135h1065l-31 -135h-1065z" />
<glyph unicode="&#x3e;" horiz-adv-x="1228" d="M82 6l31 141l950 385l-778 386l30 141l961 -475l-23 -103z" />
<glyph unicode="?" horiz-adv-x="796" d="M479 438h-114l22 103q20 88 63 164t92 132.5t98 111.5t90 125.5t58 150.5q17 74 -10.5 112.5t-75.5 38.5q-62 0 -111.5 -53.5t-72.5 -122.5l-117 25q38 120 127.5 197t208.5 77q110 0 169 -71.5t30 -202.5q-21 -95 -68 -175t-101 -137.5t-107.5 -112.5t-98.5 -126.5 t-63 -153.5zM268 193h172l-41 -193h-172z" />
<glyph unicode="@" horiz-adv-x="1638" d="M807 418q64 0 134 44.5t126 110.5t98 141t56 138q15 74 -22 133t-101 59q-68 0 -139.5 -42t-127.5 -106t-97 -138.5t-56 -141.5q-19 -88 17 -143t112 -55zM1319 1016l74 127h129l-303 -578q-35 -60 -45 -110q-13 -52 32 -52q71 0 157.5 69t155.5 176.5t93 213.5 q27 122 2 218.5t-89 164t-159 103.5t-207 36q-131 0 -259 -51.5t-229.5 -138.5t-175 -204.5t-102.5 -246.5q-23 -112 -14.5 -210t50.5 -179t107 -138.5t155 -89.5t194 -32q146 0 297.5 65.5t259.5 178.5h129q-134 -166 -327.5 -262t-389.5 -96q-212 0 -365.5 101.5 t-215 276.5t-15.5 385q45 206 186 380.5t338 275t402 100.5q140 0 256.5 -46.5t191 -130t105.5 -198.5t0 -252q-28 -125 -100.5 -238.5t-161 -188t-181.5 -118.5t-166 -44q-54 0 -82.5 34.5t-19.5 100.5l-4 -2q-153 -133 -281 -133t-189.5 93t-31.5 226q31 141 118 271.5 t218 216.5t270 86q161 0 193 -160z" />
<glyph unicode="A" d="M756 1368l-340 -795h332l12 795h-4zM672 1479h221l-2 -1479h-160l8 438h-377l-184 -438h-160z" />
<glyph unicode="B" horiz-adv-x="1024" d="M135 0l328 1479h393q163 0 233 -100t33 -265q-27 -118 -101.5 -206.5t-195.5 -121.5l-2 -4q122 -34 165 -131.5t11 -240.5q-46 -207 -184.5 -308.5t-380.5 -101.5h-299zM451 709l-127 -574h159q295 0 357 275q33 149 -21.5 224t-208.5 75h-159zM592 1343l-111 -499h90 q175 0 267 61t125 209q28 125 -20.5 177t-190.5 52h-160z" />
<glyph unicode="C" horiz-adv-x="1024" d="M1128 1032h-159q47 332 -146 332q-142 0 -236.5 -142.5t-168.5 -482.5q-74 -346 -43.5 -485t172.5 -139q116 0 195.5 88.5t127.5 288.5h160q-59 -246 -192 -379t-322 -133q-102 0 -169.5 40.5t-105 128.5t-33.5 236t50 354q45 206 107 354t138.5 236t162.5 129t188 41 q166 0 236.5 -116.5t37.5 -350.5z" />
<glyph unicode="D" horiz-adv-x="1024" d="M592 1343l-268 -1208h86q75 0 131.5 14t113 53t100.5 106t84.5 174t73.5 257t40 257t-7 174t-53 106t-89.5 53t-125.5 14h-86zM135 0l328 1479h274q96 0 166.5 -22.5t121.5 -75t73.5 -137t17 -211t-42.5 -294.5q-38 -168 -88.5 -294.5t-110 -210.5t-133.5 -137t-154 -75 t-177 -22h-275z" />
<glyph unicode="E" d="M463 1479h676l-31 -136h-516l-113 -503h381l-29 -135h-380l-127 -570h540l-28 -135h-701z" />
<glyph unicode="F" horiz-adv-x="796" d="M135 0l328 1479h635l-31 -136h-475l-113 -503h357l-29 -135h-356l-156 -705h-160z" />
<glyph unicode="G" horiz-adv-x="1024" d="M1135 1024h-160q55 340 -156 340q-91 0 -161 -59t-129.5 -197.5t-110.5 -368.5t-52.5 -368.5t42 -197t135.5 -58.5q113 0 185 59.5t97 173.5l47 209h-200l28 135h361l-152 -692h-102l2 111q-125 -131 -297 -131q-100 0 -167 40.5t-104 128.5t-33 236t50 354 q45 206 107 354t138 236t161.5 129t185.5 41q79 0 137.5 -26.5t90 -72t49.5 -106.5t17 -129.5t-9 -140.5z" />
<glyph unicode="H" horiz-adv-x="1024" d="M463 1479h160l-144 -639h434l144 639h160l-328 -1479h-160l156 705h-434l-156 -705h-160z" />
<glyph unicode="I" horiz-adv-x="454" d="M475 1479h160l-328 -1479h-160z" />
<glyph unicode="J" horiz-adv-x="569" d="M602 1479h160l-248 -1110q-25 -114 -61 -188.5t-91.5 -119.5t-126 -63t-172.5 -18q-19 0 -77 12l43 139q43 -16 88 -16q98 0 150.5 48.5t78.5 168.5z" />
<glyph unicode="K" d="M442 1479h160l-168 -754h4l582 754h172l-401 -516l127 -963h-173l-98 799h-4l-268 -344l-101 -455h-159z" />
<glyph unicode="L" horiz-adv-x="796" d="M463 1479h160l-299 -1344h479l-29 -135h-639z" />
<glyph unicode="M" horiz-adv-x="1251" d="M442 1479h254l11 -1119h4l499 1119h254l-327 -1479h-148l299 1356h-4l-606 -1356h-105l-8 1356h-4l-299 -1356h-147z" />
<glyph unicode="N" horiz-adv-x="1024" d="M442 1479h250l139 -1090h5l241 1090h160l-328 -1479h-172l-174 1286h-4l-285 -1286h-159z" />
<glyph unicode="O" horiz-adv-x="1024" d="M934 739q40 182 48.5 308.5t-14 193.5t-60 95t-95.5 28q-45 0 -85.5 -16.5t-83.5 -59.5t-80.5 -112t-75.5 -179.5t-70 -257.5q-33 -147 -44.5 -257.5t-4 -179.5t32 -111.5t57 -59t78.5 -16.5q45 0 85.5 16.5t83.5 59t81 111.5t76 179.5t71 257.5zM1094 739 q-45 -202 -108 -350t-139 -236.5t-160.5 -130.5t-180.5 -42q-417 0 -248 759q87 396 237.5 578t348.5 182q417 0 250 -760z" />
<glyph unicode="P" d="M115 0l327 1479h349q178 0 260.5 -110.5t42.5 -295.5q-41 -184 -173 -294.5t-311 -110.5h-188l-148 -668h-159zM571 1343l-120 -540h167q123 0 204.5 67.5t111.5 202.5t-21 202.5t-174 67.5h-168z" />
<glyph unicode="Q" horiz-adv-x="1024" d="M608 287l29 131q88 -26 145 -121q84 144 152 442q40 182 48.5 308.5t-14 193.5t-60 95t-95.5 28q-45 0 -85.5 -16.5t-83.5 -59.5t-80.5 -112t-75.5 -179.5t-70 -257.5q-33 -147 -44.5 -257.5t-4 -179.5t32 -111.5t57 -59t78.5 -16.5q89 0 157 65q-29 62 -86 107zM975 25 l-31 -140q-81 4 -128.5 47.5t-76.5 120.5q-103 -73 -233 -73q-417 0 -248 759q87 396 237.5 578t348.5 182q417 0 250 -760q-88 -393 -246 -585q24 -57 52 -91t75 -38z" />
<glyph unicode="R" horiz-adv-x="1024" d="M592 1343l-113 -512h139q166 0 248 63t111 193t-25.5 193t-220.5 63h-139zM135 0l328 1479h356q182 0 270.5 -101.5t49.5 -281.5q-29 -130 -109.5 -226t-208.5 -137l88 -733h-168l-84 700l-211 -8l-151 -692h-160z" />
<glyph unicode="S" d="M1053 1098h-148q40 266 -168 266q-91 0 -158.5 -54.5t-86.5 -140.5q-12 -53 -2 -100t36.5 -82.5t63.5 -71t79 -66.5t83 -68.5t76.5 -77t58.5 -92t29 -113.5t-11 -142q-38 -178 -159.5 -277t-303.5 -99q-171 0 -245 114t-35 303h147q-27 -133 18.5 -207.5t161.5 -74.5 q102 0 174.5 63t98.5 180q14 60 0.5 113.5t-46.5 93.5t-77 81.5t-91.5 77.5t-91 82t-74.5 94t-42 113.5t6 141.5q34 156 152.5 250t279.5 94t234.5 -104.5t40.5 -296.5z" />
<glyph unicode="T" horiz-adv-x="796" d="M342 1479h766l-31 -136h-303l-297 -1343h-160l297 1343h-303z" />
<glyph unicode="U" horiz-adv-x="1024" d="M463 1479h160l-242 -1086q-13 -60 -13.5 -107t14 -87.5t53.5 -62t102 -21.5t111.5 21.5t80.5 62t52.5 87.5t33.5 107l242 1086h160l-242 -1090q-42 -188 -160 -298.5t-309 -110.5t-259 110.5t-26 298.5z" />
<glyph unicode="V" d="M360 1479h160v-1172h4l520 1172h160l-676 -1479h-147z" />
<glyph unicode="W" horiz-adv-x="1251" d="M340 1479h147l-79 -1155h4l477 1155h131l-27 -1155h4l420 1155h148l-566 -1479h-135l23 1161h-4l-490 -1161h-135z" />
<glyph unicode="X" d="M369 1479h172l108 -525l326 525h172l-445 -693l179 -786h-172l-136 618l-372 -618h-172l493 786z" />
<glyph unicode="Y" d="M360 1479h172l111 -648l389 648h172l-530 -852l-137 -627h-160l137 627z" />
<glyph unicode="Z" d="M467 1479h680l-25 -111l-823 -1233h549l-29 -135h-729l25 115l805 1228h-484z" />
<glyph unicode="[" horiz-adv-x="569" d="M76 -205l375 1684h376l-18 -82h-242l-338 -1520h242l-18 -82h-377z" />
<glyph unicode="\" horiz-adv-x="569" d="M584 -20h-135l-138 1519h135z" />
<glyph unicode="]" horiz-adv-x="569" d="M774 1479l-375 -1684h-376l18 82h242l338 1520h-242l18 82h377z" />
<glyph unicode="^" horiz-adv-x="1228" d="M260 604l625 875h114l236 -875h-148l-184 701l-495 -701h-148z" />
<glyph unicode="_" horiz-adv-x="1024" d="M967 -256h-1024l22 102h1024z" />
<glyph unicode="`" horiz-adv-x="454" d="M504 1184l-197 282h160l139 -282h-102z" />
<glyph unicode="a" d="M428 754l-131 20q54 137 153 224t232 87q147 0 209 -80.5t29 -222.5l-132 -594q-32 -150 -14 -188h-153v90q-54 -44 -128 -77t-124 -33q-125 0 -184 74.5t-31 199.5q16 75 63 141.5t108 114t138 86t148 62t143 38.5l16 76q20 88 -10 139.5t-101 51.5q-77 0 -136.5 -62 t-94.5 -147zM647 213l80 360q-63 -18 -123.5 -42.5t-127 -62t-113.5 -90.5t-60 -112q-18 -77 11 -120.5t106 -43.5q94 0 227 111z" />
<glyph unicode="b" d="M305 102l-55 -102h-115q40 83 88 287l264 1192h148l-111 -492q122 98 219 98q66 0 113 -29.5t76 -92.5t29 -172.5t-33 -258.5t-81 -258.5t-105.5 -172t-117.5 -92t-126 -29.5q-137 0 -193 122zM498 868l-146 -663q23 -45 61 -74t72 -29q48 0 88.5 21.5t78 70t70 133 t58.5 205.5q39 162 35 257.5t-37 134.5t-98 39q-31 0 -67 -17t-57 -32.5t-58 -45.5z" />
<glyph unicode="c" horiz-adv-x="796" d="M874 750h-143q14 115 -17.5 164t-103.5 49q-66 0 -110.5 -34t-84.5 -128.5t-79 -268.5t-40 -268.5t28.5 -128t95.5 -33.5q74 0 124.5 50.5t98.5 183.5h143q-57 -165 -156.5 -260.5t-238.5 -95.5q-168 0 -217.5 131.5t14.5 420.5q64 288 172.5 420.5t276.5 132.5 q139 0 194.5 -85.5t42.5 -249.5z" />
<glyph unicode="d" d="M635 0l16 102h-4q-112 -122 -248 -122q-52 0 -92.5 17.5t-70.5 59t-43.5 104t-8.5 157t31 214.5q33 149 81 258.5t105.5 172.5t117.5 92.5t126 29.5q100 0 174 -98l111 492h147l-264 -1192q-45 -191 -39 -287h-139zM647 205l146 663q-23 30 -37 45.5t-42 32.5t-59 17 q-99 0 -169.5 -97.5t-123.5 -333.5q-38 -162 -31.5 -257.5t40 -134t98.5 -38.5q34 0 84 29t94 74z" />
<glyph unicode="e" horiz-adv-x="796" d="M358 631h357q38 172 15 252t-120 80q-86 0 -148.5 -75.5t-103.5 -256.5zM834 508h-504l-13 -59q-41 -195 -12 -271t135 -76q140 0 222 201l137 -16q-47 -128 -158 -217.5t-250 -89.5q-168 0 -217.5 131.5t14.5 420.5q64 288 172.5 420.5t276.5 132.5q110 0 170.5 -63 t67.5 -176t-25 -268z" />
<glyph unicode="f" horiz-adv-x="569" d="M244 942l28 123h164l47 217q26 111 88 164t179 53q44 0 110 -12l-24 -115q-35 17 -76 17q-53 0 -85.5 -30t-43.5 -83l-47 -211h172l-29 -123h-172l-207 -942h-147l207 942h-164z" />
<glyph unicode="g" d="M668 -86q5 20 -1 37t-23.5 29.5t-37 22t-50 17.5t-54.5 13t-58.5 12t-54.5 12q-159 -63 -176 -145q-16 -69 34.5 -109.5t166.5 -40.5q222 0 254 152zM442 707q-24 -100 -14 -160t37.5 -84.5t73.5 -24.5q155 0 215 269q59 268 -97 268t-215 -268zM1075 1085l-31 -135 q-14 4 -40 4q-49 0 -103 -41q10 -110 -12 -204q-42 -191 -141.5 -286t-229.5 -95q-16 0 -48 4t-48 4q-27 -6 -55 -24.5t-35 -45.5q-3 -16 1 -28.5t16.5 -21.5t27 -15.5t38.5 -12t44.5 -9.5t52.5 -10t55 -11q26 -6 47.5 -11.5t45 -14t41.5 -17t36 -20.5t30.5 -25.5t22.5 -31 t14 -37.5t3.5 -45.5t-6.5 -53.5q-24 -107 -138 -178.5t-278 -71.5q-178 0 -257.5 61t-55.5 168q15 70 68.5 126t133.5 87q-47 16 -71 54t-13 90q13 57 62.5 94t109.5 47q-51 42 -66 133t7 172q41 188 148.5 294.5t248.5 106.5q58 0 108.5 -25t63.5 -73q81 98 203 98z" />
<glyph unicode="h" d="M147 0l328 1479h148l-119 -531q61 56 137 96.5t127 40.5q233 0 172 -278l-178 -807h-148l174 786q20 92 1.5 134.5t-78.5 42.5q-100 0 -232 -132l-184 -831h-148z" />
<glyph unicode="i" horiz-adv-x="454" d="M154 0l235 1065h148l-236 -1065h-147zM442 1307l39 172h148l-39 -172h-148z" />
<glyph unicode="j" horiz-adv-x="454" d="M-68 -340l27 123q36 -8 47 -8q103 0 131 131l258 1159h148l-260 -1171q-29 -130 -94 -186t-177 -56q-26 0 -80 8zM449 1307l38 172h148l-39 -172h-147z" />
<glyph unicode="k" horiz-adv-x="796" d="M135 0l328 1479h147l-209 -934h5l399 520h151l-272 -340l86 -725h-152l-65 578h-4l-197 -263l-69 -315h-148z" />
<glyph unicode="l" horiz-adv-x="454" d="M154 0l327 1479h148l-328 -1479h-147z" />
<glyph unicode="m" horiz-adv-x="1366" d="M311 0h-147l235 1065h136l-27 -117q145 137 278 137q64 0 109 -37.5t51 -97.5q151 135 279 135q103 0 144.5 -65t14.5 -180l-184 -840h-147l180 819q18 81 0 112.5t-78 31.5q-15 0 -29 -2t-28 -7t-25 -9t-25.5 -13t-22 -14t-22.5 -17l-20 -16t-20.5 -17.5t-18.5 -15.5 l-188 -852h-148l180 819q18 81 -2 112.5t-81 31.5q-42 0 -84.5 -20.5t-64 -38.5t-56.5 -52z" />
<glyph unicode="n" d="M147 0l236 1065h139l-26 -117q68 57 145 97t127 40q233 0 172 -278l-178 -807h-148l174 786q20 92 1.5 134.5t-78.5 42.5q-100 0 -232 -132l-184 -831h-148z" />
<glyph unicode="o" horiz-adv-x="796" d="M336 532q-39 -174 -40 -268.5t28.5 -128t95.5 -33.5t110 34t83.5 128t78.5 268t40.5 268.5t-27.5 128.5t-95 34t-110.5 -34t-84.5 -128.5t-79 -268.5zM188 532q64 288 172.5 420.5t276.5 132.5t217.5 -132t-14.5 -421q-64 -287 -172.5 -419.5t-276.5 -132.5t-217.5 131.5 t14.5 420.5z" />
<glyph unicode="p" d="M518 1065l-22 -102h4q106 122 243 122q66 0 113 -29.5t76 -92.5t29 -172.5t-33 -258.5t-81 -258.5t-105.5 -172t-117.5 -92t-126 -29.5q-96 0 -174 98l-95 -426h-147l313 1413h123zM498 860l-148 -663q23 -30 37 -45.5t42.5 -32.5t59.5 -17q99 0 169 97t122 333 q39 162 33.5 257.5t-39 134.5t-98.5 39q-34 0 -85 -29t-93 -74z" />
<glyph unicode="q" d="M840 963l22 102h123l-313 -1413h-148l94 426q-118 -98 -219 -98q-52 0 -92.5 17.5t-70.5 59t-43.5 104t-8.5 157t31 214.5q33 149 81 258.5t105.5 172.5t117.5 92.5t126 29.5q138 0 191 -122h4zM645 197l148 663q-25 45 -62.5 74t-71.5 29q-98 0 -171 -98t-126 -333 q-38 -162 -33 -257.5t38 -134t98 -38.5q31 0 67 17.5t54.5 31.5t58.5 46z" />
<glyph unicode="r" horiz-adv-x="569" d="M135 0l236 1065h147l-29 -129h5q83 92 146 120.5t157 28.5l-31 -139q-90 0 -162.5 -40t-152.5 -148l-168 -758h-148z" />
<glyph unicode="s" horiz-adv-x="796" d="M868 831l-131 -36q-7 82 -36.5 125t-110.5 43q-52 0 -94 -36.5t-54 -90.5q-10 -44 6.5 -82t49.5 -66t75 -59.5t82.5 -62t71.5 -74t43.5 -94.5t-2.5 -124q-28 -126 -129 -210t-227 -84q-139 0 -203.5 71t-73.5 211l141 29q20 -189 154 -189q61 0 118 48.5t70 113.5 q10 44 -1 82t-36.5 65.5t-59.5 56t-71 53t-70.5 56t-57.5 65t-33 81.5t4 104q24 106 119.5 182t214.5 76q121 0 181 -66t60 -188z" />
<glyph unicode="t" horiz-adv-x="569" d="M223 942l29 123h143l78 356h148l-78 -356h196l-28 -123h-197l-164 -745q-11 -48 9 -77.5t73 -29.5q28 0 94 21l-22 -111q-75 -20 -146 -20q-106 0 -143 54t-10 175l162 733h-144z" />
<glyph unicode="u" d="M997 1065l-235 -1065h-139l24 117q-68 -57 -145 -97t-127 -40q-233 0 -172 278l180 807h147l-174 -786q-42 -177 78 -177q98 0 232 131l184 832h147z" />
<glyph unicode="v" horiz-adv-x="796" d="M272 1065h148l8 -918h4l414 918h147l-497 -1065h-197z" />
<glyph unicode="w" horiz-adv-x="1138" d="M272 1065h140l-23 -782h4l346 782h140l2 -782h4l313 782h139l-456 -1065h-123l-2 827h-4l-367 -827h-123z" />
<glyph unicode="x" horiz-adv-x="681" d="M369 553l-131 512h151l92 -373l240 373h151l-344 -512l150 -553h-152l-100 418l-272 -418h-152z" />
<glyph unicode="y" horiz-adv-x="681" d="M240 1065h151l21 -815h4l344 815h151l-475 -1042q-169 -371 -418 -371h-75l26 123h45q87 0 157 60t116 173z" />
<glyph unicode="z" horiz-adv-x="681" d="M287 942l28 123h553l-22 -98l-608 -844h421l-26 -123h-586l23 111l594 831h-377z" />
<glyph unicode="{" horiz-adv-x="569" d="M164 596l18 82q64 0 99.5 37.5t58.5 134.5l98 453q23 96 86 146t152 50h131l-19 -82h-106q-83 0 -107 -106l-106 -482q-19 -88 -75 -134.5t-122 -55.5l-2 -4q62 -9 98 -56t17 -135l-106 -481q-24 -106 57 -106h106l-18 -82h-131q-89 0 -130 50t-20 146l101 453 q22 98 3.5 135t-83.5 37z" />
<glyph unicode="|" horiz-adv-x="454" d="M154 -20l338 1519h135l-338 -1519h-135z" />
<glyph unicode="}" horiz-adv-x="569" d="M686 678l-18 -82q-64 0 -99.5 -37.5t-58.5 -134.5l-100 -453q-21 -96 -84 -146t-152 -50h-131l18 82h107q82 0 106 106l107 481q19 88 75 135t122 56l2 4q-62 9 -98 55.5t-17 134.5l106 482q24 106 -57 106h-106l18 82h131q89 0 130 -50t18 -146l-99 -453 q-22 -98 -3.5 -135t83.5 -37z" />
<glyph unicode="~" horiz-adv-x="1228" d="M1178 678l55 -103q-66 -81 -139.5 -130.5t-169.5 -49.5q-83 0 -219 68q-9 4 -41.5 19.5t-46 21t-37.5 15t-42 13t-34 3.5q-39 0 -81 -24t-69 -50.5t-69 -73.5l-56 102q31 38 60 66.5t68 56.5t85.5 43t96.5 15q85 0 221 -68q6 -3 40 -19.5t45.5 -21t36.5 -14.5t42.5 -13.5 t33.5 -3.5q39 0 81 24t69.5 50.5t69.5 73.5z" />
<glyph unicode="&#xa1;" horiz-adv-x="681" d="M532 627l-196 -1041h-172l262 1041h106zM621 872h-172l43 193h172z" />
<glyph unicode="&#xa2;" d="M362 199l349 778q-15 6 -43 6q-66 0 -110.5 -33.5t-85 -128t-79.5 -268.5q-59 -270 -31 -354zM778 913l-350 -784q21 -6 49 -6q74 0 124.5 50t98.5 183h144q-57 -166 -155.5 -261t-237.5 -95q-49 0 -74 10l-111 -243h-98l125 278q-69 55 -80 179.5t33 328.5 q64 288 172 420.5t276 132.5q38 0 72 -6l102 231h99l-119 -266q103 -79 84 -295h-144q12 95 -10 143z" />
<glyph unicode="&#xa3;" d="M59 -20l31 139q72 30 127 91.5t84 127.5t45 141q8 35 13 67t9 69.5t7 60.5h-160l27 123h135q0 22 -1 76t-1 86t4.5 79.5t13.5 87.5q40 184 145.5 277.5t233.5 93.5q77 0 131 -24t82.5 -63t40.5 -96t10.5 -115t-12.5 -128h-135q7 88 2.5 155t-37.5 107.5t-96 40.5 q-81 0 -133 -51t-80 -174q-12 -55 -16 -112t-4 -135t-1 -105h217l-26 -123h-193q-2 -17 -8.5 -77.5t-13.5 -94.5q-34 -153 -109 -266q37 -56 78 -87.5t96 -31.5q70 0 124.5 59.5t88.5 210.5h135q-53 -231 -138 -320t-238 -89q-70 0 -132 44.5t-92 110.5q-129 -137 -254 -155 z" />
<glyph unicode="&#xa4;" d="M981 379l-107 -86l-71 96q-117 -92 -283 -92q-164 0 -241 92l-117 -96l-66 86l115 100q-32 42 -40.5 116t9.5 144q16 74 56 146.5t92 113.5l-72 101l104 86l72 -96q120 92 283 92q167 0 241 -92l117 96l68 -86l-117 -101q31 -42 40 -116.5t-7 -143.5q-18 -75 -58 -147 t-92 -113zM324 739q-31 -136 31.5 -223.5t193.5 -87.5t232 87.5t132 223.5q29 136 -33.5 224t-193.5 88t-231.5 -88t-130.5 -224z" />
<glyph unicode="&#xa5;" d="M993 610l-28 -123h-328l-107 -487h-147l106 487h-327l28 123h328l2 17l-31 172h-258l27 123h209l-100 557h147l121 -680l416 680h147l-346 -557h209l-27 -123h-258l-108 -172l-2 -17h327z" />
<glyph unicode="&#xa6;" horiz-adv-x="454" d="M154 -20l129 581h135l-129 -581h-135zM362 918l130 581h135l-129 -581h-136z" />
<glyph unicode="&#xa7;" horiz-adv-x="1024" d="M1098 1335l-115 -78q-26 52 -69.5 92t-94.5 40q-132 0 -157 -121q-10 -42 16 -97t71 -107.5t97.5 -116.5t96 -123.5t65.5 -130t8 -134.5q-23 -101 -100.5 -162t-178.5 -61q42 -68 62 -129.5t4 -130.5q-25 -106 -114.5 -177t-196.5 -71q-200 0 -291 172l114 78 q21 -61 74.5 -100t122.5 -39q52 0 97.5 39.5t56.5 91.5q9 43 -8.5 92.5t-53 98t-79.5 100.5t-87.5 107.5t-77 110.5t-48 118.5t-1.5 123.5q21 90 104.5 146.5t178.5 56.5q-96 120 -66 258q21 91 102.5 154t196.5 63q87 0 155.5 -45t115.5 -119zM444 811q-10 -45 39 -139 t125 -172t133 -78q45 0 86 37.5t50 83.5q9 41 -18.5 109.5t-72.5 131t-99.5 108.5t-94.5 46q-58 0 -97 -34.5t-51 -92.5z" />
<glyph unicode="&#xa8;" horiz-adv-x="454" d="M291 1204l45 209h135l-45 -209h-135zM561 1204l45 209h135l-45 -209h-135z" />
<glyph unicode="&#xa9;" horiz-adv-x="1638" d="M815 -20q-124 0 -232 37.5t-186.5 105.5t-130.5 162.5t-63.5 209.5t14.5 246q46 210 189 385t341.5 274t405.5 99q154 0 282 -58t207.5 -160t111.5 -240.5t-5 -299.5q-35 -159 -128 -301.5t-219 -242.5t-279.5 -158.5t-307.5 -58.5zM844 102q172 0 331.5 83t273 229.5 t153.5 326.5q39 176 -10 322t-173 229.5t-295 83.5q-173 0 -333.5 -83.5t-273.5 -229t-152 -322.5q-23 -110 -15.5 -206.5t47.5 -176t102.5 -136.5t151.5 -88.5t193 -31.5zM1225 594h131q-64 -148 -187.5 -237t-263.5 -89q-202 0 -297.5 135t-50.5 338q45 206 195 337.5 t356 131.5q149 0 236 -82.5t77 -230.5h-129q0 84 -56 137t-155 53q-142 0 -242 -96.5t-134 -245.5q-17 -71 -8.5 -135t35 -112.5t79 -77.5t121.5 -29q99 0 179 56.5t114 146.5z" />
<glyph unicode="&#xaa;" horiz-adv-x="544" d="M442 1300l-90 13q30 81 93.5 133.5t150.5 52.5q96 0 136.5 -48t21.5 -134l-80 -356q-19 -87 -8 -113h-107l-4 37q-24 -23 -68.5 -36t-80.5 -13q-83 0 -122 45.5t-20 126.5q12 56 53 103.5t97.5 79t110 51.5t108.5 32l8 37q11 51 -3.5 74.5t-59.5 23.5q-92 0 -136 -109z M571 991l41 185q-49 -15 -94.5 -35.5t-90 -57t-52.5 -75.5q-11 -44 4 -63t61 -19q36 0 71.5 19t59.5 46z" />
<glyph unicode="&#xab;" horiz-adv-x="1024" d="M608 217h-139l-184 315l323 316h140l-332 -316zM903 217h-139l-184 315l323 316h139l-331 -316z" />
<glyph unicode="&#xac;" horiz-adv-x="1228" d="M1065 246l98 438h-930l29 135h1065l-127 -573h-135z" />
<glyph unicode="&#xad;" horiz-adv-x="681" d="M694 465h-504l29 135h504z" />
<glyph unicode="&#xae;" horiz-adv-x="1638" d="M815 680l-86 -389h-135l197 889h337q308 0 252 -252q-24 -111 -98 -170.5t-170 -73.5l152 -393h-162l-150 389h-137zM901 1065l-59 -270h147q128 0 183.5 27t74.5 112q14 69 -24 100t-142 31h-180zM815 -20q-124 0 -232 37.5t-186.5 105.5t-130.5 162.5t-63.5 209.5 t14.5 246q46 210 189 385t341.5 274t405.5 99q154 0 282 -58t207.5 -160t111.5 -240.5t-5 -299.5q-35 -159 -128 -301.5t-219 -242.5t-279.5 -158.5t-307.5 -58.5zM844 102q172 0 331.5 83t273 229.5t153.5 326.5q39 176 -10 322t-173 229.5t-295 83.5q-173 0 -333.5 -83.5 t-273.5 -229t-152 -322.5q-23 -110 -15.5 -206.5t47.5 -176t102.5 -136.5t151.5 -88.5t193 -31.5z" />
<glyph unicode="&#xaf;" horiz-adv-x="454" d="M778 1257h-545l21 99h545z" />
<glyph unicode="&#xb0;" horiz-adv-x="819" d="M870 1196q19 86 -23.5 147.5t-125.5 61.5q-84 0 -154.5 -61.5t-89.5 -147.5t23.5 -147.5t126.5 -61.5t154 61.5t89 147.5zM371 1196q28 125 136 214t234 89t195 -89t41 -214t-136.5 -214t-234.5 -89t-194.5 89t-40.5 214z" />
<glyph unicode="&#xb1;" horiz-adv-x="1228" d="M705 717l77 348h136l-78 -348h465l-31 -135h-465l-76 -349h-135l76 349h-465l31 135h465zM82 0l29 135h1065l-29 -135h-1065z" />
<glyph unicode="&#xb2;" horiz-adv-x="544" d="M631 598h-455l23 102q39 66 98 135.5t114 123.5t107 107.5t89 107.5t48 104q12 54 -5 84.5t-60 30.5q-55 0 -93.5 -34t-66.5 -120h-102q71 260 284 260q97 0 143 -57.5t23 -161.5q-14 -63 -52.5 -125t-90.5 -116.5t-106 -105t-111.5 -112t-93.5 -116.5h331z" />
<glyph unicode="&#xb3;" horiz-adv-x="544" d="M459 1303h-111q21 89 82.5 142.5t157.5 53.5q87 0 136.5 -55.5t27.5 -159.5q-42 -177 -170 -207v-4q127 -45 90 -223q-29 -132 -105.5 -198t-177.5 -66q-105 0 -150.5 61.5t-23.5 163.5h111q-9 -57 9 -88t79 -31q49 0 86.5 39.5t54.5 116.5q21 91 -18.5 128.5 t-141.5 39.5l25 106q97 -2 145.5 30.5t69.5 125.5q23 115 -66 115q-49 0 -73 -21.5t-37 -68.5z" />
<glyph unicode="&#xb4;" horiz-adv-x="454" d="M795 1466l-320 -282h-102l262 282h160z" />
<glyph unicode="&#xb5;" d="M997 1065l-235 -1065h-139l24 117q-68 -57 -145 -97t-127 -40q-47 0 -82 12l-76 -340h-147l313 1413h147l-174 -786q-42 -177 78 -177q98 0 232 131l184 832h147z" />
<glyph unicode="&#xb6;" horiz-adv-x="1024" d="M401 -172l193 868q-186 0 -277.5 109t-54.5 276q18 82 56.5 149.5t89 113t113 76.5t127.5 45t132 14h576l-25 -111h-143l-342 -1540h-135l342 1540h-174l-342 -1540h-136z" />
<glyph unicode="&#xb7;" horiz-adv-x="454" d="M244 532q9 41 45.5 71t77.5 30t63.5 -30t13.5 -71t-45 -70.5t-77 -29.5t-64 29.5t-14 70.5z" />
<glyph unicode="&#xb8;" horiz-adv-x="454" d="M-76 -410l49 91q75 -29 127 -29q61 0 104.5 23.5t51.5 60.5t-16 62.5t-76 25.5q-29 0 -90 -21l-23 29l162 168h78l-121 -119l2 -4q24 12 68 12q68 0 105.5 -38.5t23.5 -108.5q-20 -83 -95.5 -133.5t-167.5 -50.5q-117 0 -182 32z" />
<glyph unicode="&#xb9;" horiz-adv-x="544" d="M242 598l22 98h94l150 672l-100 -8l16 74q76 16 151 65h89l-179 -803h107l-23 -98h-327z" />
<glyph unicode="&#xba;" horiz-adv-x="477" d="M592 1167q30 143 20 190.5t-65 47.5q-54 0 -86 -49.5t-62 -188.5q-31 -143 -22 -190t63 -47q55 0 87.5 49t64.5 188zM285 1167q38 173 105.5 252.5t176.5 79.5t143.5 -79.5t-3.5 -252.5q-38 -172 -107.5 -251.5t-179.5 -79.5q-109 0 -141 79t6 252z" />
<glyph unicode="&#xbb;" horiz-adv-x="1024" d="M649 848h139l185 -316l-324 -315h-139l332 315zM354 848h140l184 -316l-324 -315h-139l332 315z" />
<glyph unicode="&#xbc;" horiz-adv-x="1363" d="M1225 727l-260 -424h170l94 424h-4zM1225 887h153l-129 -584h103l-23 -106h-102l-43 -197h-115l43 197h-285l21 92zM307 -20h-127l1237 1519h127zM274 598l23 98h94l150 672l-101 -8l17 74q76 16 151 65h88l-178 -803h107l-23 -98h-328z" />
<glyph unicode="&#xbd;" horiz-adv-x="1363" d="M299 -20h-127l1237 1519h127zM274 598l23 98h94l150 672l-101 -8l17 74q76 16 151 65h88l-178 -803h107l-23 -98h-328zM1311 0h-455l23 102q38 66 96.5 135.5t113.5 123.5t107 107.5t89 107.5t48 104q12 54 -4.5 84.5t-58.5 30.5q-55 0 -94.5 -34t-67.5 -120h-102 q74 260 284 260q98 0 144 -58t22 -161q-14 -63 -52.5 -125t-91 -116.5t-106.5 -105.5t-111.5 -112.5t-93.5 -116.5h332z" />
<glyph unicode="&#xbe;" horiz-adv-x="1363" d="M1225 727l-260 -424h170l94 424h-4zM1225 887h153l-129 -584h103l-23 -106h-102l-43 -197h-115l43 197h-285l21 92zM299 -20h-127l1237 1519h127zM500 1303h-111q21 89 82.5 142.5t157.5 53.5q87 0 136.5 -55.5t27.5 -159.5q-42 -177 -170 -207v-4q127 -45 90 -223 q-29 -132 -105.5 -198t-177.5 -66q-105 0 -150.5 61.5t-23.5 163.5h111q-9 -57 9 -88t79 -31q49 0 86.5 39.5t54.5 116.5q21 91 -18.5 128.5t-141.5 39.5l25 106q97 -2 145.5 30.5t69.5 125.5q23 115 -66 115q-49 0 -73 -21.5t-37 -68.5z" />
<glyph unicode="&#xbf;" horiz-adv-x="796" d="M551 627h115l-23 -103q-19 -88 -61.5 -164t-91.5 -132.5t-98 -111.5t-90.5 -125.5t-59.5 -150.5q-16 -74 11 -112.5t75 -38.5q62 0 111.5 53.5t72.5 122.5l117 -25q-37 -120 -126 -197t-208 -77q-110 0 -170 71.5t-31 202.5q21 95 68 175t101 137.5t107.5 112.5 t98.5 126.5t63 153.5zM762 872h-172l43 193h172z" />
<glyph unicode="&#xc0;" d="M756 1368l-340 -795h332l12 795h-4zM672 1479h221l-2 -1479h-160l8 438h-377l-184 -438h-160zM813 1556l-195 283h160l137 -283h-102z" />
<glyph unicode="&#xc1;" d="M756 1368l-340 -795h332l12 795h-4zM672 1479h221l-2 -1479h-160l8 438h-377l-184 -438h-160zM1022 1839l-320 -282h-102l262 282h160z" />
<glyph unicode="&#xc2;" d="M756 1368l-340 -795h332l12 795h-4zM672 1479h221l-2 -1479h-160l8 438h-377l-184 -438h-160zM522 1556l271 283h139l143 -283h-131l-98 209l-193 -209h-131z" />
<glyph unicode="&#xc3;" d="M756 1368l-340 -795h332l12 795h-4zM672 1479h221l-2 -1479h-160l8 438h-377l-184 -438h-160zM588 1577h-74q19 73 77.5 137t125.5 64q55 0 135 -45t113 -45q40 0 62.5 27.5t37.5 74.5h74q-25 -87 -74.5 -144t-128.5 -57q-47 0 -127 45q-76 45 -117 45q-72 0 -104 -102z " />
<glyph unicode="&#xc4;" d="M756 1368l-340 -795h332l12 795h-4zM672 1479h221l-2 -1479h-160l8 438h-377l-184 -438h-160zM518 1577l45 209h135l-45 -209h-135zM788 1577l45 209h135l-45 -209h-135z" />
<glyph unicode="&#xc5;" d="M756 1368l-340 -795h332l12 795h-4zM672 1479h221l-2 -1479h-160l8 438h-377l-184 -438h-160zM565 1751q17 80 86 137.5t151 57.5t125.5 -57.5t26.5 -137.5q-19 -81 -87.5 -137.5t-150.5 -56.5q-83 0 -126.5 57t-24.5 137zM651 1751q-10 -43 15.5 -75.5t68.5 -32.5 t82.5 32.5t50.5 75.5q9 43 -17 76t-69 33t-82.5 -33t-48.5 -76z" />
<glyph unicode="&#xc6;" horiz-adv-x="1478" d="M940 1479h768l-31 -136h-487l-113 -503h381l-28 -135h-381l-127 -570h512l-29 -135h-672l96 438h-376l-265 -438h-170zM537 573h323l180 816h-4z" />
<glyph unicode="&#xc7;" horiz-adv-x="1024" d="M1128 1032h-159q47 332 -146 332q-142 0 -236.5 -142.5t-168.5 -482.5q-74 -346 -43.5 -485t172.5 -139q116 0 195.5 88.5t127.5 288.5h160q-59 -246 -192 -379t-322 -133q-102 0 -169.5 40.5t-105 128.5t-33.5 236t50 354q45 206 107 354t138.5 236t162.5 129t188 41 q166 0 236.5 -116.5t37.5 -350.5zM209 -410l49 91q75 -29 127 -29q61 0 104.5 23.5t51.5 60.5t-16 62.5t-76 25.5q-29 0 -90 -21l-23 29l162 168h78l-121 -119l2 -4q24 12 68 12q68 0 105.5 -38.5t23.5 -108.5q-20 -83 -95.5 -133.5t-167.5 -50.5q-117 0 -182 32z" />
<glyph unicode="&#xc8;" d="M463 1479h676l-31 -136h-516l-113 -503h381l-29 -135h-380l-127 -570h540l-28 -135h-701zM825 1556l-194 283h160l137 -283h-103z" />
<glyph unicode="&#xc9;" d="M463 1479h676l-31 -136h-516l-113 -503h381l-29 -135h-380l-127 -570h540l-28 -135h-701zM1035 1839l-320 -282h-102l262 282h160z" />
<glyph unicode="&#xca;" d="M463 1479h676l-31 -136h-516l-113 -503h381l-29 -135h-380l-127 -570h540l-28 -135h-701zM535 1556l270 283h139l143 -283h-131l-98 209l-192 -209h-131z" />
<glyph unicode="&#xcb;" d="M463 1479h676l-31 -136h-516l-113 -503h381l-29 -135h-380l-127 -570h540l-28 -135h-701zM531 1577l45 209h135l-45 -209h-135zM801 1577l45 209h135l-45 -209h-135z" />
<glyph unicode="&#xcc;" horiz-adv-x="454" d="M475 1479h160l-328 -1479h-160zM586 1556l-195 283h160l137 -283h-102z" />
<glyph unicode="&#xcd;" horiz-adv-x="454" d="M475 1479h160l-328 -1479h-160zM795 1839l-320 -282h-102l262 282h160z" />
<glyph unicode="&#xce;" horiz-adv-x="454" d="M475 1479h160l-328 -1479h-160zM295 1556l270 283h140l143 -283h-131l-99 209l-192 -209h-131z" />
<glyph unicode="&#xcf;" horiz-adv-x="454" d="M475 1479h160l-328 -1479h-160zM291 1577l45 209h135l-45 -209h-135zM561 1577l45 209h135l-45 -209h-135z" />
<glyph unicode="&#xd0;" horiz-adv-x="1024" d="M479 840h246l-29 -135h-245l-127 -570h86q75 0 131.5 14t113 53t100.5 106t84.5 174t73.5 257t40 257t-7 174t-53 106t-89.5 53t-125.5 14h-86zM209 840h110l144 639h274q96 0 166.5 -22.5t121.5 -75t73.5 -137t17 -211t-42.5 -294.5q-38 -168 -88.5 -294.5t-110 -210.5 t-133.5 -137t-154 -75t-177 -22h-275l156 705h-111z" />
<glyph unicode="&#xd1;" horiz-adv-x="1024" d="M442 1479h250l139 -1090h5l241 1090h160l-328 -1479h-172l-174 1286h-4l-285 -1286h-159zM564 1577h-74q16 72 75.5 136.5t127.5 64.5q55 0 135 -45q76 -45 112 -45q40 0 62 27t39 75h73q-25 -87 -75 -143.5t-129 -56.5q-45 0 -125 45q-76 45 -117 45q-40 0 -66 -29.5 t-38 -73.5z" />
<glyph unicode="&#xd2;" horiz-adv-x="1024" d="M934 739q40 182 48.5 308.5t-14 193.5t-60 95t-95.5 28q-45 0 -85.5 -16.5t-83.5 -59.5t-80.5 -112t-75.5 -179.5t-70 -257.5q-33 -147 -44.5 -257.5t-4 -179.5t32 -111.5t57 -59t78.5 -16.5q45 0 85.5 16.5t83.5 59t81 111.5t76 179.5t71 257.5zM1094 739 q-45 -202 -108 -350t-139 -236.5t-160.5 -130.5t-180.5 -42q-417 0 -248 759q87 396 237.5 578t348.5 182q417 0 250 -760zM870 1556l-194 283h160l137 -283h-103z" />
<glyph unicode="&#xd3;" horiz-adv-x="1024" d="M934 739q40 182 48.5 308.5t-14 193.5t-60 95t-95.5 28q-45 0 -85.5 -16.5t-83.5 -59.5t-80.5 -112t-75.5 -179.5t-70 -257.5q-33 -147 -44.5 -257.5t-4 -179.5t32 -111.5t57 -59t78.5 -16.5q45 0 85.5 16.5t83.5 59t81 111.5t76 179.5t71 257.5zM1094 739 q-45 -202 -108 -350t-139 -236.5t-160.5 -130.5t-180.5 -42q-417 0 -248 759q87 396 237.5 578t348.5 182q417 0 250 -760zM1080 1839l-320 -282h-102l262 282h160z" />
<glyph unicode="&#xd4;" horiz-adv-x="1024" d="M934 739q40 182 48.5 308.5t-14 193.5t-60 95t-95.5 28q-45 0 -85.5 -16.5t-83.5 -59.5t-80.5 -112t-75.5 -179.5t-70 -257.5q-33 -147 -44.5 -257.5t-4 -179.5t32 -111.5t57 -59t78.5 -16.5q45 0 85.5 16.5t83.5 59t81 111.5t76 179.5t71 257.5zM1094 739 q-45 -202 -108 -350t-139 -236.5t-160.5 -130.5t-180.5 -42q-417 0 -248 759q87 396 237.5 578t348.5 182q417 0 250 -760zM580 1556l270 283h139l144 -283h-132l-98 209l-192 -209h-131z" />
<glyph unicode="&#xd5;" horiz-adv-x="1024" d="M934 739q40 182 48.5 308.5t-14 193.5t-60 95t-95.5 28q-45 0 -85.5 -16.5t-83.5 -59.5t-80.5 -112t-75.5 -179.5t-70 -257.5q-33 -147 -44.5 -257.5t-4 -179.5t32 -111.5t57 -59t78.5 -16.5q45 0 85.5 16.5t83.5 59t81 111.5t76 179.5t71 257.5zM1094 739 q-45 -202 -108 -350t-139 -236.5t-160.5 -130.5t-180.5 -42q-417 0 -248 759q87 396 237.5 578t348.5 182q417 0 250 -760zM564 1577h-74q16 72 75.5 136.5t127.5 64.5q55 0 135 -45q76 -45 112 -45q40 0 62 27t39 75h73q-25 -87 -75 -143.5t-129 -56.5q-45 0 -125 45 q-76 45 -117 45q-40 0 -66 -29.5t-38 -73.5z" />
<glyph unicode="&#xd6;" horiz-adv-x="1024" d="M934 739q40 182 48.5 308.5t-14 193.5t-60 95t-95.5 28q-45 0 -85.5 -16.5t-83.5 -59.5t-80.5 -112t-75.5 -179.5t-70 -257.5q-33 -147 -44.5 -257.5t-4 -179.5t32 -111.5t57 -59t78.5 -16.5q45 0 85.5 16.5t83.5 59t81 111.5t76 179.5t71 257.5zM1094 739 q-45 -202 -108 -350t-139 -236.5t-160.5 -130.5t-180.5 -42q-417 0 -248 759q87 396 237.5 578t348.5 182q417 0 250 -760zM576 1577l45 209h135l-45 -209h-135zM846 1577l45 209h135l-45 -209h-135z" />
<glyph unicode="&#xd7;" horiz-adv-x="1228" d="M1360 967l-531 -435l338 -434l-118 -98l-338 436l-531 -436l-78 98l531 434l-338 435l121 98l338 -436l530 436z" />
<glyph unicode="&#xd8;" horiz-adv-x="1024" d="M981 1155l-586 -950q38 -90 142 -90q45 0 85.5 16.5t83.5 59t81 111.5t76 179.5t71 257.5q55 247 51 416h-4zM373 342l579 942q-45 80 -139 80q-45 0 -85.5 -16.5t-83.5 -59.5t-80.5 -112t-75.5 -179.5t-70 -257.5q-59 -252 -49 -397h4zM303 57l-186 -303h-111l242 389 q-80 190 10 596q87 396 237.5 578t348.5 182q124 0 196 -69l136 217h110l-186 -304q84 -192 -6 -604q-45 -202 -108 -350t-139 -236.5t-160.5 -130.5t-180.5 -42q-132 0 -203 77z" />
<glyph unicode="&#xd9;" horiz-adv-x="1024" d="M463 1479h160l-242 -1086q-13 -60 -13.5 -107t14 -87.5t53.5 -62t102 -21.5t111.5 21.5t80.5 62t52.5 87.5t33.5 107l242 1086h160l-242 -1090q-42 -188 -160 -298.5t-309 -110.5t-259 110.5t-26 298.5zM870 1556l-194 283h160l137 -283h-103z" />
<glyph unicode="&#xda;" horiz-adv-x="1024" d="M463 1479h160l-242 -1086q-13 -60 -13.5 -107t14 -87.5t53.5 -62t102 -21.5t111.5 21.5t80.5 62t52.5 87.5t33.5 107l242 1086h160l-242 -1090q-42 -188 -160 -298.5t-309 -110.5t-259 110.5t-26 298.5zM1080 1839l-320 -282h-102l262 282h160z" />
<glyph unicode="&#xdb;" horiz-adv-x="1024" d="M463 1479h160l-242 -1086q-13 -60 -13.5 -107t14 -87.5t53.5 -62t102 -21.5t111.5 21.5t80.5 62t52.5 87.5t33.5 107l242 1086h160l-242 -1090q-42 -188 -160 -298.5t-309 -110.5t-259 110.5t-26 298.5zM580 1556l270 283h139l144 -283h-132l-98 209l-192 -209h-131z" />
<glyph unicode="&#xdc;" horiz-adv-x="1024" d="M463 1479h160l-242 -1086q-13 -60 -13.5 -107t14 -87.5t53.5 -62t102 -21.5t111.5 21.5t80.5 62t52.5 87.5t33.5 107l242 1086h160l-242 -1090q-42 -188 -160 -298.5t-309 -110.5t-259 110.5t-26 298.5zM576 1577l45 209h135l-45 -209h-135zM846 1577l45 209h135 l-45 -209h-135z" />
<glyph unicode="&#xdd;" d="M360 1479h172l111 -648l389 648h172l-530 -852l-137 -627h-160l137 627zM1022 1839l-320 -282h-102l262 282h160z" />
<glyph unicode="&#xde;" d="M115 0l327 1479h160l-74 -332h189q178 0 260.5 -110.5t42.5 -295.5q-41 -184 -172.5 -294.5t-310.5 -110.5h-189l-74 -336h-159zM498 1012l-121 -541h168q123 0 204 67.5t111 202.5q30 136 -21 203.5t-173 67.5h-168z" />
<glyph unicode="&#xdf;" d="M147 0l263 1188q28 127 129 219t239 92q150 0 216 -102t28 -271q-25 -116 -77.5 -187t-135.5 -112q29 -16 50.5 -35t41 -52t28 -74.5t6 -104t-19.5 -139.5q-98 -442 -378 -442q-57 0 -107 24l29 127q43 -29 94 -29q68 0 121 65t90 230q43 197 11.5 277t-154.5 80l26 123 q90 6 144.5 61.5t85.5 189.5q29 130 -7 189t-112 59q-70 0 -126 -52.5t-75 -135.5l-262 -1188h-148z" />
<glyph unicode="&#xe0;" d="M428 754l-131 20q54 137 153 224t232 87q147 0 209 -80.5t29 -222.5l-132 -594q-32 -150 -14 -188h-153v90q-54 -44 -128 -77t-124 -33q-125 0 -184 74.5t-31 199.5q16 75 63 141.5t108 114t138 86t148 62t143 38.5l16 76q20 88 -10 139.5t-101 51.5q-77 0 -136.5 -62 t-94.5 -147zM647 213l80 360q-63 -18 -123.5 -42.5t-127 -62t-113.5 -90.5t-60 -112q-18 -77 11 -120.5t106 -43.5q94 0 227 111zM731 1184l-196 282h159l140 -282h-103z" />
<glyph unicode="&#xe1;" d="M428 754l-131 20q54 137 153 224t232 87q147 0 209 -80.5t29 -222.5l-132 -594q-32 -150 -14 -188h-153v90q-54 -44 -128 -77t-124 -33q-125 0 -184 74.5t-31 199.5q16 75 63 141.5t108 114t138 86t148 62t143 38.5l16 76q20 88 -10 139.5t-101 51.5q-77 0 -136.5 -62 t-94.5 -147zM647 213l80 360q-63 -18 -123.5 -42.5t-127 -62t-113.5 -90.5t-60 -112q-18 -77 11 -120.5t106 -43.5q94 0 227 111zM1022 1466l-320 -282h-102l262 282h160z" />
<glyph unicode="&#xe2;" d="M428 754l-131 20q54 137 153 224t232 87q147 0 209 -80.5t29 -222.5l-132 -594q-32 -150 -14 -188h-153v90q-54 -44 -128 -77t-124 -33q-125 0 -184 74.5t-31 199.5q16 75 63 141.5t108 114t138 86t148 62t143 38.5l16 76q20 88 -10 139.5t-101 51.5q-77 0 -136.5 -62 t-94.5 -147zM647 213l80 360q-63 -18 -123.5 -42.5t-127 -62t-113.5 -90.5t-60 -112q-18 -77 11 -120.5t106 -43.5q94 0 227 111zM440 1184l269 282h139l145 -282h-131l-100 209l-191 -209h-131z" />
<glyph unicode="&#xe3;" d="M428 754l-131 20q54 137 153 224t232 87q147 0 209 -80.5t29 -222.5l-132 -594q-32 -150 -14 -188h-153v90q-54 -44 -128 -77t-124 -33q-125 0 -184 74.5t-31 199.5q16 75 63 141.5t108 114t138 86t148 62t143 38.5l16 76q20 88 -10 139.5t-101 51.5q-77 0 -136.5 -62 t-94.5 -147zM647 213l80 360q-63 -18 -123.5 -42.5t-127 -62t-113.5 -90.5t-60 -112q-18 -77 11 -120.5t106 -43.5q94 0 227 111zM506 1204h-74q16 72 75.5 136.5t127.5 64.5q55 0 135 -45q76 -45 113 -45q40 0 61.5 27t38.5 75h74q-25 -87 -75.5 -143.5t-129.5 -56.5 q-45 0 -125 45q-76 45 -117 45q-40 0 -66 -29.5t-38 -73.5z" />
<glyph unicode="&#xe4;" d="M428 754l-131 20q54 137 153 224t232 87q147 0 209 -80.5t29 -222.5l-132 -594q-32 -150 -14 -188h-153v90q-54 -44 -128 -77t-124 -33q-125 0 -184 74.5t-31 199.5q16 75 63 141.5t108 114t138 86t148 62t143 38.5l16 76q20 88 -10 139.5t-101 51.5q-77 0 -136.5 -62 t-94.5 -147zM647 213l80 360q-63 -18 -123.5 -42.5t-127 -62t-113.5 -90.5t-60 -112q-18 -77 11 -120.5t106 -43.5q94 0 227 111zM518 1204l45 209h135l-45 -209h-135zM788 1204l45 209h135l-45 -209h-135z" />
<glyph unicode="&#xe5;" d="M428 754l-131 20q54 137 153 224t232 87q147 0 209 -80.5t29 -222.5l-132 -594q-32 -150 -14 -188h-153v90q-54 -44 -128 -77t-124 -33q-125 0 -184 74.5t-31 199.5q16 75 63 141.5t108 114t138 86t148 62t143 38.5l16 76q20 88 -10 139.5t-101 51.5q-77 0 -136.5 -62 t-94.5 -147zM647 213l80 360q-63 -18 -123.5 -42.5t-127 -62t-113.5 -90.5t-60 -112q-18 -77 11 -120.5t106 -43.5q94 0 227 111zM565 1378q17 80 86 137.5t151 57.5t125.5 -57.5t26.5 -137.5q-19 -81 -87.5 -137.5t-150.5 -56.5q-83 0 -126.5 57t-24.5 137zM651 1378 q-10 -43 15.5 -75.5t68.5 -32.5t82.5 32.5t50.5 75.5q9 43 -17 76t-69 33t-82.5 -33t-48.5 -76z" />
<glyph unicode="&#xe6;" horiz-adv-x="1251" d="M573 213l80 360q-348 -131 -387 -307q-18 -77 11 -120.5t106 -43.5q45 0 99.5 33.5t90.5 77.5zM813 631h356q38 172 15.5 252t-119.5 80q-78 0 -145.5 -82.5t-106.5 -249.5zM1288 508h-504l-12 -59q-19 -97 -17.5 -163.5t23.5 -107.5t51 -58.5t66 -17.5q139 0 221 201 l137 -16q-47 -127 -154.5 -217t-234.5 -90q-190 0 -233 145q-164 -145 -299 -145q-125 0 -184 74.5t-31 199.5q16 75 63 142t106 113.5t132.5 85.5t136.5 62t125 39l16 76q21 94 -5 142.5t-89 48.5q-60 0 -119 -64t-92 -145l-131 20q54 136 152.5 223.5t230.5 87.5 q147 0 188 -131q122 131 261 131q110 0 170.5 -63t67.5 -176t-25 -268z" />
<glyph unicode="&#xe7;" horiz-adv-x="796" d="M874 750h-143q14 115 -17.5 164t-103.5 49q-66 0 -110.5 -34t-84.5 -128.5t-79 -268.5t-40 -268.5t28.5 -128t95.5 -33.5q74 0 124.5 50.5t98.5 183.5h143q-57 -165 -156.5 -260.5t-238.5 -95.5q-168 0 -217.5 131.5t14.5 420.5q64 288 172.5 420.5t276.5 132.5 q139 0 194.5 -85.5t42.5 -249.5zM96 -410l49 91q75 -29 127 -29q61 0 104.5 23.5t51.5 60.5t-16 62.5t-76 25.5q-29 0 -90 -21l-23 29l162 168h78l-121 -119l2 -4q24 12 68 12q68 0 105.5 -38.5t23.5 -108.5q-20 -83 -95.5 -133.5t-167.5 -50.5q-117 0 -182 32z" />
<glyph unicode="&#xe8;" horiz-adv-x="796" d="M358 631h357q38 172 15 252t-120 80q-86 0 -148.5 -75.5t-103.5 -256.5zM834 508h-504l-13 -59q-41 -195 -12 -271t135 -76q140 0 222 201l137 -16q-47 -128 -158 -217.5t-250 -89.5q-168 0 -217.5 131.5t14.5 420.5q64 288 172.5 420.5t276.5 132.5q110 0 170.5 -63 t67.5 -176t-25 -268zM676 1184l-197 282h160l139 -282h-102z" />
<glyph unicode="&#xe9;" horiz-adv-x="796" d="M358 631h357q38 172 15 252t-120 80q-86 0 -148.5 -75.5t-103.5 -256.5zM834 508h-504l-13 -59q-41 -195 -12 -271t135 -76q140 0 222 201l137 -16q-47 -128 -158 -217.5t-250 -89.5q-168 0 -217.5 131.5t14.5 420.5q64 288 172.5 420.5t276.5 132.5q110 0 170.5 -63 t67.5 -176t-25 -268zM967 1466l-320 -282h-102l262 282h160z" />
<glyph unicode="&#xea;" horiz-adv-x="796" d="M358 631h357q38 172 15 252t-120 80q-86 0 -148.5 -75.5t-103.5 -256.5zM834 508h-504l-13 -59q-41 -195 -12 -271t135 -76q140 0 222 201l137 -16q-47 -128 -158 -217.5t-250 -89.5q-168 0 -217.5 131.5t14.5 420.5q64 288 172.5 420.5t276.5 132.5q110 0 170.5 -63 t67.5 -176t-25 -268zM385 1184l268 282h140l145 -282h-131l-100 209l-191 -209h-131z" />
<glyph unicode="&#xeb;" horiz-adv-x="796" d="M358 631h357q38 172 15 252t-120 80q-86 0 -148.5 -75.5t-103.5 -256.5zM834 508h-504l-13 -59q-41 -195 -12 -271t135 -76q140 0 222 201l137 -16q-47 -128 -158 -217.5t-250 -89.5q-168 0 -217.5 131.5t14.5 420.5q64 288 172.5 420.5t276.5 132.5q110 0 170.5 -63 t67.5 -176t-25 -268zM463 1204l45 209h135l-45 -209h-135zM733 1204l45 209h135l-45 -209h-135z" />
<glyph unicode="&#xec;" horiz-adv-x="454" d="M154 0l235 1065h148l-236 -1065h-147zM504 1184l-197 282h160l139 -282h-102z" />
<glyph unicode="&#xed;" horiz-adv-x="454" d="M154 0l235 1065h148l-236 -1065h-147zM795 1466l-320 -282h-102l262 282h160z" />
<glyph unicode="&#xee;" horiz-adv-x="454" d="M154 0l235 1065h148l-236 -1065h-147zM213 1184l268 282h140l145 -282h-131l-100 209l-191 -209h-131z" />
<glyph unicode="&#xef;" horiz-adv-x="454" d="M154 0l235 1065h148l-236 -1065h-147zM291 1204l45 209h135l-45 -209h-135zM561 1204l45 209h135l-45 -209h-135z" />
<glyph unicode="&#xf0;" horiz-adv-x="796" d="M336 532q-39 -174 -40 -268.5t28.5 -128t95.5 -33.5t110 34t83.5 128t78.5 268t40.5 268.5t-27.5 128.5t-95 34t-110.5 -34t-84.5 -128.5t-79 -268.5zM588 1434l145 45q47 -57 72 -109l217 76l29 -94l-207 -72q99 -283 -4 -748q-64 -287 -172.5 -419.5t-276.5 -132.5 t-217.5 131.5t14.5 420.5q64 288 172.5 420.5t276.5 132.5q69 0 96 -18q-3 75 -31 162l-202 -70l-29 94l188 66q-27 62 -71 115z" />
<glyph unicode="&#xf1;" d="M147 0l236 1065h139l-26 -117q68 57 145 97t127 40q233 0 172 -278l-178 -807h-148l174 786q20 92 1.5 134.5t-78.5 42.5q-100 0 -232 -132l-184 -831h-148zM506 1204h-74q16 72 75.5 136.5t127.5 64.5q55 0 135 -45q76 -45 112 -45q40 0 62 27t39 75h73 q-25 -87 -75 -143.5t-129 -56.5q-45 0 -125 45q-76 45 -117 45q-40 0 -66 -29.5t-38 -73.5z" />
<glyph unicode="&#xf2;" horiz-adv-x="796" d="M336 532q-39 -174 -40 -268.5t28.5 -128t95.5 -33.5t110 34t83.5 128t78.5 268t40.5 268.5t-27.5 128.5t-95 34t-110.5 -34t-84.5 -128.5t-79 -268.5zM188 532q64 288 172.5 420.5t276.5 132.5t217.5 -132t-14.5 -421q-64 -287 -172.5 -419.5t-276.5 -132.5t-217.5 131.5 t14.5 420.5zM676 1184l-197 282h160l139 -282h-102z" />
<glyph unicode="&#xf3;" horiz-adv-x="796" d="M336 532q-39 -174 -40 -268.5t28.5 -128t95.5 -33.5t110 34t83.5 128t78.5 268t40.5 268.5t-27.5 128.5t-95 34t-110.5 -34t-84.5 -128.5t-79 -268.5zM188 532q64 288 172.5 420.5t276.5 132.5t217.5 -132t-14.5 -421q-64 -287 -172.5 -419.5t-276.5 -132.5t-217.5 131.5 t14.5 420.5zM967 1466l-320 -282h-102l262 282h160z" />
<glyph unicode="&#xf4;" horiz-adv-x="796" d="M336 532q-39 -174 -40 -268.5t28.5 -128t95.5 -33.5t110 34t83.5 128t78.5 268t40.5 268.5t-27.5 128.5t-95 34t-110.5 -34t-84.5 -128.5t-79 -268.5zM188 532q64 288 172.5 420.5t276.5 132.5t217.5 -132t-14.5 -421q-64 -287 -172.5 -419.5t-276.5 -132.5t-217.5 131.5 t14.5 420.5zM385 1184l268 282h140l145 -282h-131l-100 209l-191 -209h-131z" />
<glyph unicode="&#xf5;" horiz-adv-x="796" d="M336 532q-39 -174 -40 -268.5t28.5 -128t95.5 -33.5t110 34t83.5 128t78.5 268t40.5 268.5t-27.5 128.5t-95 34t-110.5 -34t-84.5 -128.5t-79 -268.5zM188 532q64 288 172.5 420.5t276.5 132.5t217.5 -132t-14.5 -421q-64 -287 -172.5 -419.5t-276.5 -132.5t-217.5 131.5 t14.5 420.5zM451 1204h-74q16 72 75.5 136.5t127.5 64.5q55 0 135 -45q76 -45 112 -45q40 0 62 27t39 75h73q-25 -87 -75 -143.5t-129 -56.5q-45 0 -125 45q-76 45 -117 45q-40 0 -66 -29.5t-38 -73.5z" />
<glyph unicode="&#xf6;" horiz-adv-x="796" d="M336 532q-39 -174 -40 -268.5t28.5 -128t95.5 -33.5t110 34t83.5 128t78.5 268t40.5 268.5t-27.5 128.5t-95 34t-110.5 -34t-84.5 -128.5t-79 -268.5zM188 532q64 288 172.5 420.5t276.5 132.5t217.5 -132t-14.5 -421q-64 -287 -172.5 -419.5t-276.5 -132.5t-217.5 131.5 t14.5 420.5zM463 1204l45 209h135l-45 -209h-135zM733 1204l45 209h135l-45 -209h-135z" />
<glyph unicode="&#xf7;" horiz-adv-x="1228" d="M1249 465h-1065l29 135h1065zM688 950q12 55 61 95t105 40q55 0 85.5 -39.5t18.5 -95.5t-60 -95.5t-103 -39.5q-56 0 -87.5 40t-19.5 95zM504 115q12 55 61 95t105 40q55 0 85.5 -39.5t18.5 -95.5q-12 -55 -61 -95t-105 -40q-55 0 -85.5 39.5t-18.5 95.5z" />
<glyph unicode="&#xf8;" horiz-adv-x="796" d="M297 254l410 670q-24 39 -97 39q-66 0 -110.5 -34t-84.5 -128.5t-79 -268.5q-40 -185 -43 -278h4zM1036 1290l-194 -315q68 -133 -2 -443q-64 -287 -172.5 -419.5t-276.5 -132.5q-92 0 -139 36l-162 -262h-102l200 326q-70 130 0 452q64 288 172.5 420.5t276.5 132.5 q98 0 147 -41l150 246h102zM731 797l-405 -660q23 -35 94 -35q66 0 110 34t83.5 128t78.5 268q35 154 43 265h-4z" />
<glyph unicode="&#xf9;" d="M997 1065l-235 -1065h-139l24 117q-68 -57 -145 -97t-127 -40q-233 0 -172 278l180 807h147l-174 -786q-42 -177 78 -177q98 0 232 131l184 832h147zM731 1184l-196 282h159l140 -282h-103z" />
<glyph unicode="&#xfa;" d="M997 1065l-235 -1065h-139l24 117q-68 -57 -145 -97t-127 -40q-233 0 -172 278l180 807h147l-174 -786q-42 -177 78 -177q98 0 232 131l184 832h147zM1022 1466l-320 -282h-102l262 282h160z" />
<glyph unicode="&#xfb;" d="M997 1065l-235 -1065h-139l24 117q-68 -57 -145 -97t-127 -40q-233 0 -172 278l180 807h147l-174 -786q-42 -177 78 -177q98 0 232 131l184 832h147zM440 1184l269 282h139l145 -282h-131l-100 209l-191 -209h-131z" />
<glyph unicode="&#xfc;" d="M997 1065l-235 -1065h-139l24 117q-68 -57 -145 -97t-127 -40q-233 0 -172 278l180 807h147l-174 -786q-42 -177 78 -177q98 0 232 131l184 832h147zM518 1204l45 209h135l-45 -209h-135zM788 1204l45 209h135l-45 -209h-135z" />
<glyph unicode="&#xfd;" horiz-adv-x="681" d="M240 1065h151l21 -815h4l344 815h151l-475 -1042q-169 -371 -418 -371h-75l26 123h45q87 0 157 60t116 173zM910 1466l-320 -282h-102l262 282h160z" />
<glyph unicode="&#xfe;" d="M627 1479l-111 -492h4q102 98 223 98q66 0 113 -29.5t76 -92.5t29 -172.5t-33 -258.5t-81 -258.5t-105.5 -172t-117.5 -92t-126 -29.5q-96 0 -174 98l-95 -426h-147l405 1827h140zM498 860l-148 -663q23 -30 37 -45.5t42.5 -32.5t59.5 -17q99 0 169 97t122 333 q39 162 33.5 257.5t-39 134.5t-98.5 39q-34 0 -85 -29t-93 -74z" />
<glyph unicode="&#xff;" horiz-adv-x="681" d="M240 1065h151l21 -815h4l344 815h151l-475 -1042q-169 -371 -418 -371h-75l26 123h45q87 0 157 60t116 173zM406 1204l45 209h135l-45 -209h-135zM676 1204l45 209h135l-45 -209h-135z" />
<glyph unicode="&#x152;" horiz-adv-x="1478" d="M1057 705l-127 -570h504l-29 -135h-791q-117 0 -197 21t-135.5 71t-76.5 135t-13.5 211t46.5 301q48 219 110.5 362t149.5 227t192 117.5t252 33.5h766l-31 -136h-479l-113 -503h365l-29 -135h-364zM817 344l174 791q27 119 -5.5 161.5t-137.5 42.5q-78 0 -140 -27.5 t-120 -93t-105.5 -185t-85.5 -294.5q-39 -175 -44 -294.5t24 -185t79 -93t128 -27.5q104 0 155 42.5t78 162.5z" />
<glyph unicode="&#x153;" horiz-adv-x="1251" d="M311 532q-39 -174 -40 -268.5t28.5 -128t95.5 -33.5t111 33.5t86.5 128.5t79.5 268t39 268t-29 129t-96 34t-110.5 -34t-85 -128.5t-79.5 -268.5zM842 631h332q38 172 15 252t-120 80q-143 0 -227 -332zM1292 508h-479l-12 -59q-30 -128 -20.5 -205.5t39.5 -109.5t79 -32 q77 0 131.5 58t85.5 143l137 -16q-43 -126 -150.5 -216.5t-234.5 -90.5q-173 0 -213 165q-102 -165 -288 -165q-168 0 -217.5 131.5t14.5 420.5q64 288 172 420.5t276 132.5q98 0 151.5 -43.5t65.5 -136.5q120 180 267 180q110 0 170.5 -63t67.5 -176t-25 -268z" />
<glyph unicode="&#x178;" d="M360 1479h172l111 -648l389 648h172l-530 -852l-137 -627h-160l137 627zM600 1577l47 209h135l-47 -209h-135zM870 1577l48 209h135l-47 -209h-136z" />
<glyph unicode="&#x2c6;" horiz-adv-x="454" d="M213 1184l268 282h140l145 -282h-131l-100 209l-191 -209h-131z" />
<glyph unicode="&#x2dc;" horiz-adv-x="454" d="M279 1204h-74q16 72 75.5 136.5t127.5 64.5q55 0 135 -45q76 -45 112 -45q40 0 62 27t39 75h73q-25 -87 -75 -143.5t-129 -56.5q-45 0 -125 45q-76 45 -117 45q-40 0 -66 -29.5t-38 -73.5z" />
<glyph unicode="&#x2000;" horiz-adv-x="973" />
<glyph unicode="&#x2001;" horiz-adv-x="1946" />
<glyph unicode="&#x2002;" horiz-adv-x="973" />
<glyph unicode="&#x2003;" horiz-adv-x="1946" />
<glyph unicode="&#x2004;" horiz-adv-x="648" />
<glyph unicode="&#x2005;" horiz-adv-x="486" />
<glyph unicode="&#x2006;" horiz-adv-x="324" />
<glyph unicode="&#x2007;" horiz-adv-x="324" />
<glyph unicode="&#x2008;" horiz-adv-x="243" />
<glyph unicode="&#x2009;" horiz-adv-x="389" />
<glyph unicode="&#x200a;" horiz-adv-x="108" />
<glyph unicode="&#x2010;" horiz-adv-x="681" d="M694 465h-504l29 135h504z" />
<glyph unicode="&#x2011;" horiz-adv-x="681" d="M694 465h-504l29 135h504z" />
<glyph unicode="&#x2012;" horiz-adv-x="681" d="M694 465h-504l29 135h504z" />
<glyph unicode="&#x2013;" horiz-adv-x="1024" d="M1130 483h-1024l21 99h1024z" />
<glyph unicode="&#x2014;" horiz-adv-x="2048" d="M2154 483h-2048l21 99h2048z" />
<glyph unicode="&#x2018;" horiz-adv-x="454" d="M541 999h-172l45 205l188 295h62l-162 -307h82z" />
<glyph unicode="&#x2019;" horiz-adv-x="454" d="M463 1479h172l-47 -205l-189 -295h-61l164 307h-82z" />
<glyph unicode="&#x201a;" horiz-adv-x="454" d="M176 193h172l-45 -205l-188 -295h-62l164 307h-82z" />
<glyph unicode="&#x201c;" horiz-adv-x="796" d="M883 999h-172l45 205l188 295h62l-162 -307h82zM541 999h-172l45 205l188 295h62l-162 -307h82z" />
<glyph unicode="&#x201d;" horiz-adv-x="796" d="M463 1479h172l-47 -205l-189 -295h-61l164 307h-82zM805 1479h172l-47 -205l-189 -295h-61l164 307h-82z" />
<glyph unicode="&#x201e;" horiz-adv-x="796" d="M176 193h172l-45 -205l-188 -295h-62l164 307h-82zM518 193h172l-45 -205l-188 -295h-62l164 307h-82z" />
<glyph unicode="&#x2022;" horiz-adv-x="1024" d="M305 739q34 154 164.5 261.5t284.5 107.5t239 -107.5t51 -261.5q-35 -154 -167.5 -262t-286.5 -108t-237 108t-48 262z" />
<glyph unicode="&#x2026;" horiz-adv-x="2048" d="M297 193h172l-41 -193h-172zM979 193h172l-41 -193h-172zM1661 193h172l-41 -193h-172z" />
<glyph unicode="&#x202f;" horiz-adv-x="389" />
<glyph unicode="&#x2039;" horiz-adv-x="681" d="M588 217h-139l-185 315l324 316h139l-332 -316z" />
<glyph unicode="&#x203a;" horiz-adv-x="681" d="M328 217h-140l332 315l-192 316h139l184 -316z" />
<glyph unicode="&#x205f;" horiz-adv-x="486" />
<glyph unicode="&#x2122;" horiz-adv-x="2027" d="M1090 1479l-25 -111h-274l-168 -756h-136l168 756h-274l25 111h684zM1333 1343l-162 -731h-135l193 867h215l110 -658l402 658h217l-193 -867h-135l162 731h-4l-451 -731h-90l-123 731h-6z" />
<glyph unicode="&#xe000;" horiz-adv-x="1064" d="M0 1065h1065v-1065h-1065v1065z" />
</font>
</defs>
</svg>
